<?xml version="1.0" encoding="utf-8"?>
<!-- Generator: Adobe Illustrator 17.0.0, SVG Export Plug-In . SVG Version: 6.00 Build 0)  -->
<!DOCTYPE svg PUBLIC "-//W3C//DTD SVG 1.1//EN" "http://www.w3.org/Graphics/SVG/1.1/DTD/svg11.dtd">
<svg version="1.1" id="レイヤー_1" xmlns="http://www.w3.org/2000/svg" xmlns:xlink="http://www.w3.org/1999/xlink" x="0px"
	 y="0px" width="100px" height="100px" viewBox="0 0 100 100" enable-background="new 0 0 100 100" xml:space="preserve">
  <g id="svg_75">
   <polygon fill="#393C51" points="16,12 16,19 81,19 81,12 57,12 57,5 43,5 43,12 " id="svg_76"/>
   <path fill="#393C51" d="m16.745972,24h65.666992l-8.457031,68h-48.254944l-8.955017,-68zm29.254028,52c0,7 7,7 7,0c0,-8 0,-35 0,-39c0,-6 -7,-6 -7,0c0,31 0,30 0,39zm-14.93103,1.291c0.635986,6.264999 7.322021,5.631996 6.682007,-0.678001c-0.867004,-8.536995 -3.54303,-34.892998 -4.070007,-40.089001c-0.528015,-5.195999 -7.208982,-4.518997 -6.682007,0.679001c3.167053,31.197002 3.160034,31.117001 4.070007,40.088001zm41.76709,-40.089001c0.526978,-5.196999 -6.152954,-5.875 -6.68103,-0.679001c-0.528931,5.197002 -3.204956,31.552998 -4.070923,40.089001c-0.640015,6.309998 6.045898,6.943001 6.682007,0.678001c0.910889,-8.970001 0.902832,-8.889999 4.069946,-40.088001z" id="svg_77"/>
  </g>
</svg>
