<?xml version="1.0" encoding="utf-8"?>
<!-- Generator: Adobe Illustrator 17.0.0, SVG Export Plug-In . SVG Version: 6.00 Build 0)  -->
<!DOCTYPE svg PUBLIC "-//W3C//DTD SVG 1.1//EN" "http://www.w3.org/Graphics/SVG/1.1/DTD/svg11.dtd">
<svg version="1.1" id="レイヤー_1" xmlns="http://www.w3.org/2000/svg" xmlns:xlink="http://www.w3.org/1999/xlink" x="0px"
	 y="0px" width="130px" height="150px" viewBox="0 0 130 150" enable-background="new 0 0 130 150" xml:space="preserve">
 <g>
  <title>Layer 1</title>
  <g id="svg_77">
   <polygon fill="#393C51" points="83.89599609375,17.37799072265625 78.2969970703125,21.084014892578125 114.532958984375,75.84701538085938 120.134033203125,72.14102172851562 106.5450439453125,51.60400390625 112.14599609375,47.89801025390625 103.9100341796875,35.4530029296875 98.3089599609375,39.15899658203125 " id="svg_78"/>
   <path fill="#393C51" d="m28.140991,57h65.666016l-8.457031,68h-48.255005l-8.953979,-68zm29.859009,52c0,7 6,7 6,0c0,-8 0,-35 0,-39c0,-6 -6,-6 -6,0c0,31 0,30 0,39zm-15.536987,1.291016c0.635986,6.264984 7.322021,5.631989 6.682007,-0.678009c-0.865967,-8.536987 -3.541992,-34.893005 -4.070007,-40.08902c-0.526978,-5.195984 -7.208984,-4.518982 -6.680969,0.679016c3.166931,31.196991 3.158936,31.117004 4.06897,40.088013zm41.766968,-40.08902c0.526001,-5.196991 -6.154053,-5.875 -6.682007,-0.679016c-0.527954,5.197021 -3.203979,31.553009 -4.069946,40.08902c-0.640991,6.309998 6.044922,6.942993 6.682007,0.678009c0.909912,-8.970001 0.901978,-8.890015 4.069946,-40.088013z" id="svg_79"/>
   <path fill="#393C51" d="m8.36499,22c19.832031,-13.434998 39.177002,-16.790009 53.728027,8.955017c3.730957,-1.865021 8.208984,-4.104034 8.208984,-4.104034l-7.834961,24.251007l-23.133057,-10.445984c0,0 5.596008,-2.239014 8.208008,-3.731018c-5.596985,-9.700987 -9.328003,-22.013977 -39.177002,-14.924988z" id="svg_80"/>
  </g>
 </g>
</svg>