<?xml version="1.0" encoding="utf-8"?>
<!-- Generator: Adobe Illustrator 17.0.0, SVG Export Plug-In . SVG Version: 6.00 Build 0)  -->
<!DOCTYPE svg PUBLIC "-//W3C//DTD SVG 1.1//EN" "http://www.w3.org/Graphics/SVG/1.1/DTD/svg11.dtd">
<svg width="70" height="61" xmlns="http://www.w3.org/2000/svg">
 <g>
  <title>Layer 1</title>
  <g id="svg_2">
   <g id="svg_3">
    <g id="svg_5">
     <path fill="#FFFFFF" d="m32.768005,18.783997c0,-1.338997 1.085999,-2.424995 2.424988,-2.424995c1.339005,0 2.425003,1.085999 2.425003,2.424995v7.876007c0,1.380997 1.119003,2.5 2.5,2.5h7.475998c1.284012,0 2.325012,1.040993 2.325012,2.324997s-1.041,2.324997 -2.325012,2.324997h-7.475998c-1.380997,0 -2.5,1.119003 -2.5,2.5v7.975998c0,1.339005 -1.085999,2.425003 -2.425003,2.425003c-1.338989,0 -2.424988,-1.085999 -2.424988,-2.425003v-7.975998c0,-1.380997 -1.119003,-2.5 -2.5,-2.5h-7.476006c-1.283997,0 -2.324997,-1.041 -2.324997,-2.324997s1.041,-2.324997 2.324997,-2.324997h7.476006c1.380997,0 2.5,-1.119003 2.5,-2.5v-7.876007l0,0z" id="svg_6"/>
    </g>
   </g>
  </g>
 </g>
</svg>