<?xml version="1.0" encoding="utf-8"?>
<!-- Generator: Adobe Illustrator 17.0.0, SVG Export Plug-In . SVG Version: 6.00 Build 0)  -->
<!DOCTYPE svg PUBLIC "-//W3C//DTD SVG 1.1//EN" "http://www.w3.org/Graphics/SVG/1.1/DTD/svg11.dtd">
<svg version="1.1" id="レイヤー_1" xmlns="http://www.w3.org/2000/svg" xmlns:xlink="http://www.w3.org/1999/xlink" x="0px"
	 y="0px" width="70px" height="61px" viewBox="0 0 70 61" enable-background="new 0 0 70 61" xml:space="preserve">
 <g>
  <title>Layer 1</title>
  <g id="svg_2">
   <g id="svg_3">
    <path fill="#FF39A6" d="m27.862,17.661003c0,2.190994 0,0 0,0v2.414001h4.380997v-2.414001h6.570999v2.414001h4.381012v-2.414001c0,0 0,2.190002 0,0c0,-4.380997 -2.189011,-4.380997 -4.381012,-4.380997c-2.188995,0 -2.190002,0 -6.570999,0c-4.380997,-0.000009 -4.380997,2.190994 -4.380997,4.380997z" id="svg_4"/>
    <g id="svg_5">
     <path fill="#FF39A6" d="m49.768005,21.168999c0,-0.602997 -0.494003,-1.095001 -1.095001,-1.095001h-26.28801c-0.602997,0 -1.095993,0.493004 -1.095993,1.095001v1.969002c0,0.601997 0.492996,1.094002 1.095993,1.094002l0,0c0.602005,0 1.095001,0.492996 1.095001,1.095001v21.90699c0,0.602005 0.494003,1.096008 1.096008,1.096008h21.906998c0.602005,0 1.095993,-0.494003 1.095993,-1.096008v-21.905991c0,-0.602005 0.493011,-1.095001 1.095001,-1.095001l0,0c0.602005,0 1.095001,-0.493004 1.095001,-1.095001l-0.000992,-1.969002l0,0zm-19.716003,21.683998c0,0.602997 -0.494003,1.095001 -1.095001,1.095001l0,0c-0.602005,0 -1.095001,-0.492004 -1.095001,-1.095001v-16.239998c0,-0.601997 0.494003,-1.095001 1.095001,-1.095001l0,0c0.602997,0 1.095001,0.494003 1.095001,1.095001v16.239998l0,0zm6.572998,0c0,0.602997 -0.492996,1.095001 -1.095993,1.095001l0,0c-0.603012,0 -1.096008,-0.492004 -1.096008,-1.095001v-16.239998c0,-0.601997 0.492996,-1.095001 1.096008,-1.095001l0,0c0.602997,0 1.095993,0.494003 1.095993,1.095001v16.239998l0,0zm6.570999,0c0,0.602997 -0.492996,1.095001 -1.095001,1.095001l0,0c-0.602005,0 -1.095001,-0.492004 -1.095001,-1.095001v-16.239998c0,-0.601997 0.492996,-1.095001 1.095001,-1.095001l0,0c0.602005,0 1.095001,0.494003 1.095001,1.095001v16.239998l0,0z" id="svg_6"/>
    </g>
   </g>
  </g>
 </g>
</svg>
