<?xml version="1.0" encoding="utf-8"?>
<!-- Generator: Adobe Illustrator 15.0.0, SVG Export Plug-In . SVG Version: 6.00 Build 0)  -->
<!DOCTYPE svg PUBLIC "-//W3C//DTD SVG 1.1//EN" "http://www.w3.org/Graphics/SVG/1.1/DTD/svg11.dtd">
<svg version="1.1" id="Layer_1" xmlns="http://www.w3.org/2000/svg" xmlns:xlink="http://www.w3.org/1999/xlink" x="0px" y="0px"
	 width="79.183px" height="98.521px" viewBox="0 0 79.183 98.521" enable-background="new 0 0 79.183 98.521" xml:space="preserve">
<g id="New_Symbol_8">
	<g transform="scale(1.0)">
		<path fill="#29ABE2" d="M20.896,18.773C20.896,23.653,20.896,18.773,20.896,18.773v9.758h9.759v-9.758h14.637v9.758h9.758v-9.758
			c0,0,0,4.879,0,0c0-9.758-4.878-9.758-9.758-9.758c-4.878,0-4.879,0-14.637,0C20.896,9.015,20.896,13.895,20.896,18.773z"/>
		<g>
			<path fill="#29ABE2" d="M69.689,26.092c0-1.341-1.099-2.439-2.439-2.439H8.699c-1.342,0-2.44,1.099-2.44,2.439v4.879
				c0,1.341,1.098,2.439,2.44,2.439l0,0c1.341,0,2.439,1.098,2.439,2.439v48.792c0,1.341,1.099,2.44,2.44,2.44H62.37
				c1.341,0,2.44-1.099,2.44-2.44V35.851c0-1.341,1.099-2.439,2.439-2.439l0,0c1.342,0,2.439-1.098,2.439-2.439V26.092
				L69.689,26.092z M25.776,74.884c0,1.342-1.099,2.439-2.439,2.439l0,0c-1.341,0-2.44-1.097-2.44-2.439V38.712
				c0-1.341,1.099-2.439,2.44-2.439l0,0c1.341,0,2.439,1.099,2.439,2.439V74.884z M40.414,74.884c0,1.342-1.098,2.439-2.44,2.439
				l0,0c-1.341,0-2.439-1.097-2.439-2.439V38.712c0-1.341,1.098-2.439,2.439-2.439l0,0c1.342,0,2.44,1.099,2.44,2.439V74.884z
				 M55.051,74.884c0,1.342-1.098,2.439-2.44,2.439l0,0c-1.34,0-2.439-1.097-2.439-2.439V38.712c0-1.341,1.099-2.439,2.439-2.439
				l0,0c1.342,0,2.44,1.099,2.44,2.439V74.884z"/>
		</g>
	</g>
</g>
</svg>
